# xmcd
#
# Track frame offsets: 
#        150
#        3455
#        19765
#        35580
#        50640
#        72550
#        87410
#        110007
#        131117
#        148315
#        158700
#        181755
#        200745
#        215980
#        236725
#
# Disc length: 3463 seconds
#
# Revision: 3
# Processed by: cddbd v1.5.2PL0 Copyright (c) Steve Scherf et al.
# Submitted via: ExactAudioCopyFreeDBPlugin 1.0
#
DISCID=eb0d850f
DTITLE=John Legend - Get Lifted
DYEAR=2005
DGENRE=R&B
TTITLE0=Prelude
TTITLE1=Let's Get Lifted
TTITLE2=Used To Love U
TTITLE3=Alright
TTITLE4=She Don't Have To Know
TTITLE5=Number One Feat. Kanye West
TTITLE6=I Can Change Feat. Snoop Dogg
TTITLE7=Ordinary People
TTITLE8=Stay With You
TTITLE9=Let's Get Lifted Again
TTITLE10=So High
TTITLE11=Refuge (When It's Cold Outside)
TTITLE12=It Don't Have To Change Feat. The Stephens Family
TTITLE13=Live It Up Feat. Miri Ben-Ari
TTITLE14=So High (Cloud 9 Remix) Feat. Lauryn Hill
EXTD=YEAR: 2005
EXTT0=
EXTT1=
EXTT2=
EXTT3=
EXTT4=
EXTT5=
EXTT6=
EXTT7=
EXTT8=
EXTT9=
EXTT10=
EXTT11=
EXTT12=
EXTT13=
EXTT14=
PLAYORDER=
